<?xml version="1.0" standalone="no"?><!DOCTYPE svg PUBLIC "-//W3C//DTD SVG 1.1//EN" "http://www.w3.org/Graphics/SVG/1.1/DTD/svg11.dtd"><svg t="1576678968781" class="icon" viewBox="0 0 1024 1024" version="1.1" xmlns="http://www.w3.org/2000/svg" p-id="3228" xmlns:xlink="http://www.w3.org/1999/xlink" width="200" height="200"><defs><style type="text/css"></style></defs><path d="M511.908686 782.382022A270.473337 270.473337 0 1 1 782.564651 511.360799 270.838595 270.838595 0 0 1 511.908686 782.382022z m0-507.708221a237.417514 237.417514 0 1 0 237.417513 237.417513A237.417514 237.417514 0 0 0 511.908686 273.943285z" p-id="3229"></path><path d="M495.28946 0m16.619226 0l0 0q16.619226 0 16.619226 16.619226l0 154.138755q0 16.619226-16.619226 16.619226l0 0q-16.619226 0-16.619226-16.619226l0-154.138755q0-16.619226 16.619226-16.619226Z" p-id="3230"></path><path d="M197.49008 107.533873m13.445237-9.768536l0 0q13.445236-9.768536 23.213772 3.6767l90.600487 124.700872q9.768536 13.445236-3.6767 23.213772l0 0q-13.445236 9.768536-23.213773-3.6767l-90.600487-124.700872q-9.768536-13.445236 3.676701-23.213772Z" p-id="3231"></path><path d="M19.973731 369.594059m5.135624-15.805823l0 0q5.135623-15.805823 20.941446-10.6702l146.594668 47.631495q15.805823 5.135623 10.6702 20.941446l0 0q-5.135623 15.805823-20.941447 10.6702l-146.594667-47.631495q-15.805823-5.135623-10.6702-20.941446Z" p-id="3232"></path><path d="M19.935936 654.294248m15.808509-5.127347l146.619588-47.554731q15.80851-5.127347 20.935856 10.681163l0 0q5.127347 15.80851-10.681163 20.935857l-146.619587 47.554731q-15.80851 5.127347-20.935857-10.681163l0 0q-5.127347-15.80851 10.681163-20.935857Z" p-id="3233"></path><path d="M197.627591 916.35969m9.773229-13.441826l90.64401-124.669239q9.773229-13.441826 23.215054-3.668597l0 0q13.441826 9.773229 3.668597 23.215054l-90.64401 124.669239q-9.773229 13.441826-23.215054 3.668597l0 0q-13.441826-9.773229-3.668597-23.215054Z" p-id="3234"></path><path d="M495.28946 836.622793m16.619226 0l0 0q16.619226 0 16.619226 16.619226l0 154.138755q0 16.619226-16.619226 16.619226l0 0q-16.619226 0-16.619226-16.619226l0-154.138755q0-16.619226 16.619226-16.619226Z" p-id="3235"></path><path d="M689.166414 784.33173m13.445236-9.768536l0 0q13.445236-9.768536 23.213772 3.6767l90.600487 124.700872q9.768536 13.445236-3.6767 23.213772l0 0q-13.445236 9.768536-23.213772-3.6767l-90.600487-124.700872q-9.768536-13.445236 3.6767-23.213772Z" p-id="3236"></path><path d="M815.473414 628.116476m5.135623-15.805823l0 0q5.135623-15.805823 20.941446-10.6702l146.594668 47.631495q15.805823 5.135623 10.6702 20.941446l0 0q-5.135623 15.805823-20.941447 10.6702l-146.594667-47.631495q-15.805823-5.135623-10.6702-20.941446Z" p-id="3237"></path><path d="M815.576351 395.847793m15.80851-5.127347l146.619588-47.554731q15.80851-5.127347 20.935856 10.681163l0 0q5.127347 15.80851-10.681163 20.935857l-146.619587 47.554731q-15.80851 5.127347-20.935857-10.681163l0 0q-5.127347-15.80851 10.681163-20.935857Z" p-id="3238"></path><path d="M690.714189 238.684692m9.815409-13.411056l91.035223-124.383858q9.815409-13.411056 23.226465-3.595647l0 0q13.411056 9.815409 3.595646 23.226465l-91.035222 124.383858q-9.815409 13.411056-23.226465 3.595647l0 0q-13.411056-9.815409-3.595647-23.226465Z" p-id="3239"></path><path d="M422.055288 361.239879a15.706082 15.706082 0 0 1-5.113608 11.505618 14.42768 14.42768 0 0 1-3.287319 2.556804 171.305868 171.305868 0 0 0-71.590512 139.163189 154.321384 154.321384 0 0 0 1.826288 24.472266c0 1.826289 0 3.652577 0.913145 5.478866a16.619226 16.619226 0 0 1-17.167113 15.888711 16.984484 16.984484 0 0 1-15.340824-8.766186 102.637418 102.637418 0 0 1-1.64366-10.409844 182.628857 182.628857 0 0 1-1.826288-26.663813 204.179062 204.179062 0 0 1 82.730872-164.365972 13.697164 13.697164 0 0 1 3.287319-2.374175 18.262886 18.262886 0 0 1 26.846442 13.697165z" p-id="3240"></path></svg>